<?xml version="1.0" encoding="UTF-8" standalone="no"?>
<!DOCTYPE svg PUBLIC "-//W3C//DTD SVG 1.1//EN" "http://www.w3.org/Graphics/SVG/1.1/DTD/svg11.dtd">
<svg width="100%" height="100%" viewBox="0 0 443 443" version="1.1" xmlns="http://www.w3.org/2000/svg" xmlns:xlink="http://www.w3.org/1999/xlink" xml:space="preserve" xmlns:serif="http://www.serif.com/" style="fill-rule:evenodd;clip-rule:evenodd;stroke-linejoin:round;stroke-miterlimit:2;">
    <g id="Artboard1" transform="matrix(1.05299,0,0,1.05299,0,0)">
        <rect x="0" y="0" width="420" height="420" style="fill:none;"/>
        <clipPath id="_clip1">
            <rect x="0" y="0" width="420" height="420"/>
        </clipPath>
        <g clip-path="url(#_clip1)">
            <g transform="matrix(0.812382,0,0,0.883835,23.9626,2.30926e-14)">
                <rect x="-29.497" y="0" width="516.998" height="475.202"/>
            </g>
            <g transform="matrix(0.949677,0,0,0.949677,5.03436,24.7922)">
                <g transform="matrix(46.798,-2.99282e-14,3.43866e-14,40.7304,-295.792,-269.632)">
                    <g transform="matrix(5.90299,-5.82079e-31,-5.82079e-31,5.90299,7.33833,11.4211)">
                        <path d="M0.614,-0.669L0.614,-0.537L0.29,-0.54L0.29,0L0.166,0L0.166,-0.535L-0.051,-0.535L-0.051,-0.667L0.614,-0.669Z" style="fill:rgb(88,206,63);fill-rule:nonzero;"/>
                    </g>
                    <g transform="matrix(0.0213684,1.57013e-17,-1.80403e-17,0.0245517,6.29353,5.49457)">
                        <path d="M292.61,192.139L341.329,229.721L343.941,241.485L275.35,241.533L271.433,198.737L292.61,192.139Z" style="fill:rgb(88,206,63);"/>
                    </g>
                    <g transform="matrix(0.0213684,1.57013e-17,-1.80403e-17,0.0245517,6.20734,5.97896)">
                        <path d="M180.167,186.91L165.053,221.804L132.878,221.804L201.353,60.798L238.763,60.798L307.238,221.804L274.545,221.804L259.431,186.91L180.167,186.91ZM192.995,157.293L246.603,157.293L219.799,95.408L192.995,157.293Z" style="fill:rgb(88,206,63);"/>
                    </g>
                    <g transform="matrix(0.0200274,1.47159e-17,-1.81442e-17,0.024693,10.1798,2.28128)">
                        <path d="M172.923,210.144C212.118,210.144 243.94,245.99 243.94,290.142C243.94,334.295 212.118,370.14 172.923,370.14C133.728,370.14 101.907,334.295 101.907,290.142C101.907,245.99 133.728,210.144 172.923,210.144ZM172.923,244.898C195.091,244.898 213.088,265.171 213.088,290.142C213.088,315.114 195.091,335.387 172.923,335.387C150.755,335.387 132.758,315.114 132.758,290.142C132.758,265.171 150.755,244.898 172.923,244.898Z" style="fill:rgb(88,206,63);"/>
                    </g>
                </g>
                <g transform="matrix(1.00645,0,0,0.920903,-151.562,177.779)">
                    <g transform="matrix(0.993591,0,0,1.08589,145.323,-221.397)">
                        <path d="M355.387,346.762L403.764,346.762L403.764,381.659L320.489,381.659L320.489,221.804L403.764,221.804L403.764,256.417L355.387,256.417L355.387,286.027L396.543,286.027L396.543,317.437L355.387,317.437L355.387,346.762Z" style="fill:rgb(88,206,63);"/>
                    </g>
                    <g transform="matrix(0.931235,0,0,1.08494,155.083,-208.535)">
                        <path d="M172.923,210.144C212.118,210.144 243.94,246.061 243.94,290.213C243.94,334.365 212.118,370.14 172.923,370.14C133.728,370.14 101.907,334.295 101.907,290.142C101.907,245.99 133.728,210.144 172.923,210.144ZM172.923,244.898C195.091,244.898 213.088,265.171 213.088,290.142C213.088,315.114 195.091,335.214 172.923,335.214C150.755,335.214 132.758,315.114 132.758,290.142C132.758,265.171 150.755,244.898 172.923,244.898Z" style="fill:rgb(88,206,63);"/>
                    </g>
                    <g transform="matrix(0.993591,0,0,1.08589,145.323,-221.397)">
                        <path d="M221.128,221.804L256.026,221.804L256.026,221.804L265.966,221.804C310.623,221.804 337.178,261.945 337.245,301.874C337.312,341.803 310.89,381.519 266.233,381.519L256.026,381.519L256.026,381.659L221.128,381.659L221.128,221.804ZM266.02,346.774C288.188,346.774 306.185,326.537 306.185,301.61C306.185,276.683 288.188,256.446 266.02,256.446C266.001,256.446 265.982,256.446 265.962,256.446L256.026,256.501L256.026,346.768L266.02,346.774C266.001,346.774 266.039,346.774 266.02,346.774Z" style="fill:rgb(88,206,63);"/>
                    </g>
                    <g transform="matrix(0.993591,0,0,1.08589,145.323,-221.397)">
                        <path d="M103.581,381.661L98.433,381.661C53.776,381.661 28.243,341.661 28.31,301.661C28.377,261.662 54.043,221.662 98.7,221.662L115.799,221.661L115.983,256.461L98.703,256.365C98.684,256.365 98.665,256.365 98.646,256.365C76.478,256.365 58.481,276.639 58.481,301.61C58.481,326.581 76.478,346.855 98.646,346.855L103.581,346.855L103.581,346.855L134.249,346.855L174.09,381.661L103.581,381.661L103.581,381.661Z" style="fill:rgb(88,206,63);"/>
                    </g>
                </g>
            </g>
        </g>
    </g>
</svg>
