<svg xmlns="http://www.w3.org/2000/svg" viewBox="0 0 920 220" role="img" aria-label="TAOCode Home"><defs><style>.cls-1{fill:currentColor;fill-rule:evenodd;}</style></defs><path class="cls-1" d="M835.94,163.83H893V205H794.77V16.42H893V57.25H835.94V92.18h48.54v37H835.94Z"/><path class="cls-1" d="M619.5,16.42c43.33,0,78.51,42.33,78.51,94.37S662.83,205,619.5,205,541,162.75,541,110.71,576.16,16.42,619.5,16.42Zm0,41c24.5,0,44.4,23.9,44.4,53.33s-19.9,53.12-44.4,53.12-44.41-23.69-44.41-53.12S595,57.38,619.5,57.38Z"/><path class="cls-1" d="M677.57,16.42h52.89c52.67,0,84,47.35,84.08,94.46s-31.09,94-83.77,94h-12V205H677.57Zm52.95,147.42c26.15,0,47.38-23.87,47.38-53.28s-21.23-53.28-47.38-53.28h-.07l-11.72.07V163.84Z"/><path class="cls-1" d="M538.92,205h-6.08c-52.67,0-82.79-47.19-82.71-94.38s30.35-94.37,83-94.37h20.17l.22,41.05-20.39-.11h-.06c-26.15,0-47.38,23.92-47.38,53.37S507,163.94,533.1,163.94h42l47,41.06Z"/><path class="cls-1" d="M223.69,15.08V52.52l-105.57-.85V204.83H77.71V53.09H7V15.65Z"/><path class="cls-1" d="M311.09,146.73l57.47,44.33,3.08,13.88-80.9.06-4.62-50.49Z"/><path class="cls-1" d="M173.7,163.84,155.88,205h-38L198.69,15.06h44.13L323.59,205H285L267.2,163.84Zm15.14-34.94h63.23l-31.62-73Z"/><path class="cls-1" d="M371.64,15c43.33,0,78.51,42.53,78.51,94.92S415,204.83,371.64,204.83s-78.51-42.53-78.51-94.91S328.31,15,371.64,15Zm0,41.24c24.51,0,44.41,24.05,44.41,53.68s-19.9,53.68-44.41,53.68-44.4-24-44.4-53.68S347.14,56.24,371.64,56.24Z"/></svg>